<svg xmlns="http://www.w3.org/2000/svg" viewBox="0 0 684 738" width="440" height="475" role="img" aria-labelledby="t">
  <title id="t">Three stacks of Swedish parking signs: the same P sign on top, and different plates under each</title>
  <g>
    <rect x="12" y="12" width="200" height="200" rx="8" fill="#ffffff" stroke="#8a9099" stroke-width="1"/>
    <rect x="18" y="18" width="188" height="188" rx="5" fill="#1b5aa5"/>
    <path fill="#ffffff" fill-rule="evenodd" d="M66.4 36 H119.6 A44.08 44.08 0 0 1 119.6 124.16 H96.8 V188 H66.4 Z M96.8 66.4 H119.6 A13.68 13.68 0 0 1 119.6 93.76 H96.8 Z"/>
    <rect x="12" y="220" width="200" height="232" rx="7" fill="#ffffff" stroke="#8a9099" stroke-width="1"/>
    <rect x="17" y="225" width="190" height="222" rx="4" fill="#1b5aa5"/>
    <text x="162" y="294" font-family="'Arial Narrow', Arial, Helvetica, sans-serif" font-weight="700" font-size="13" letter-spacing="1" text-anchor="middle" fill="#ffffff">Avgift</text>
    <text x="112" y="348" font-family="'Arial Narrow', Arial, Helvetica, sans-serif" font-weight="700" font-size="36" letter-spacing="2" text-anchor="middle" fill="#ffffff">7–19</text>
    <text x="112" y="390" font-family="'Arial Narrow', Arial, Helvetica, sans-serif" font-weight="700" font-size="36" letter-spacing="2" text-anchor="middle" fill="#ffffff">(11–17)</text>
    <text x="112" y="432" font-family="'Arial Narrow', Arial, Helvetica, sans-serif" font-weight="700" font-size="36" letter-spacing="2" text-anchor="middle" fill="#ffffff">Taxa 13</text>
    <g transform="translate(90 270)" stroke="#ffffff" stroke-linecap="round" stroke-linejoin="round">
      <circle cx="-25" cy="9" r="10" fill="none" stroke-width="4.5"/><circle cx="25" cy="9" r="10" fill="none" stroke-width="4.5"/>
      <path d="M-25 9 L-8 4 M25 9 L17 -13 M13 -15 H22" fill="none" stroke-width="4.5"/>
      <path d="M-20 -8 Q-12 -16 0 -14 Q8 -20 16 -12 L14 -6 H-18 Z" fill="#ffffff" stroke-width="2"/>
      <path d="M-8 -6 H10 L6 6 H-5 Z" fill="#ffffff" stroke-width="2"/>
    </g>
    <rect x="12" y="460" width="200" height="82" rx="7" fill="#ffffff" stroke="#8a9099" stroke-width="1"/>
    <rect x="17" y="465" width="190" height="72" rx="4" fill="#1b5aa5"/>
    <text x="112" y="516" font-family="'Arial Narrow', Arial, Helvetica, sans-serif" font-weight="700" font-size="38" letter-spacing="2" text-anchor="middle" fill="#ffffff">0–5 m</text>
    <rect x="12" y="550" width="200" height="176" rx="7" fill="#d52b1e" stroke="#8a9099" stroke-width="1"/>
    <rect x="17" y="555" width="190" height="166" rx="4" fill="#f7b500"/>
    <text x="150" y="614" font-family="'Arial Narrow', Arial, Helvetica, sans-serif" font-weight="700" font-size="38" letter-spacing="2" text-anchor="middle" fill="#111111">Torsd</text>
    <text x="112" y="696" font-family="'Arial Narrow', Arial, Helvetica, sans-serif" font-weight="700" font-size="38" letter-spacing="2" text-anchor="middle" fill="#111111">0–6</text>
    <circle cx="50" cy="600" r="24" fill="#1b5aa5" stroke="#d52b1e" stroke-width="6.720000000000001"/><line x1="33.2" y1="583.2" x2="66.8" y2="616.8" stroke="#d52b1e" stroke-width="6.720000000000001"/>
    <rect x="242" y="12" width="200" height="200" rx="8" fill="#ffffff" stroke="#8a9099" stroke-width="1"/>
    <rect x="248" y="18" width="188" height="188" rx="5" fill="#1b5aa5"/>
    <path fill="#ffffff" fill-rule="evenodd" d="M296.4 36 H349.6 A44.08 44.08 0 0 1 349.6 124.16 H326.8 V188 H296.4 Z M326.8 66.4 H349.6 A13.68 13.68 0 0 1 349.6 93.76 H326.8 Z"/>
    <rect x="242" y="220" width="200" height="214" rx="7" fill="#ffffff" stroke="#8a9099" stroke-width="1"/>
    <rect x="247" y="225" width="190" height="204" rx="4" fill="#1b5aa5"/>
    <text x="342" y="276" font-family="'Arial Narrow', Arial, Helvetica, sans-serif" font-weight="700" font-size="38" letter-spacing="2" text-anchor="middle" fill="#ffffff">Avgift</text>
    <text x="342" y="324" font-family="'Arial Narrow', Arial, Helvetica, sans-serif" font-weight="700" font-size="38" letter-spacing="2" text-anchor="middle" fill="#ffffff">7–19</text>
    <text x="342" y="370" font-family="'Arial Narrow', Arial, Helvetica, sans-serif" font-weight="700" font-size="38" letter-spacing="2" text-anchor="middle" fill="#ffffff">(11–17)</text>
    <text x="342" y="416" font-family="'Arial Narrow', Arial, Helvetica, sans-serif" font-weight="700" font-size="38" letter-spacing="2" text-anchor="middle" fill="#ffffff">Taxa 3</text>
    <rect x="242" y="442" width="200" height="168" rx="7" fill="#d52b1e" stroke="#8a9099" stroke-width="1"/>
    <rect x="247" y="447" width="190" height="158" rx="4" fill="#f7b500"/>
    <text x="376" y="504" font-family="'Arial Narrow', Arial, Helvetica, sans-serif" font-weight="700" font-size="38" letter-spacing="2" text-anchor="middle" fill="#111111">Månd</text>
    <text x="342" y="582" font-family="'Arial Narrow', Arial, Helvetica, sans-serif" font-weight="700" font-size="38" letter-spacing="2" text-anchor="middle" fill="#111111">0–6</text>
    <circle cx="280" cy="490" r="24" fill="#1b5aa5" stroke="#d52b1e" stroke-width="6.720000000000001"/><line x1="263.2" y1="473.2" x2="296.8" y2="506.8" stroke="#d52b1e" stroke-width="6.720000000000001"/>
    <rect x="242" y="618" width="200" height="72" rx="7" fill="#1d2230" stroke="#8a9099" stroke-width="1"/>
    <rect x="247" y="623" width="190" height="62" rx="4" fill="#ffffff"/>
    <text x="342" y="668" font-family="'Arial Narrow', Arial, Helvetica, sans-serif" font-weight="700" font-size="36" letter-spacing="2" text-anchor="middle" fill="#111111">Boende</text>
    <rect x="472" y="12" width="200" height="200" rx="8" fill="#ffffff" stroke="#8a9099" stroke-width="1"/>
    <rect x="478" y="18" width="188" height="188" rx="5" fill="#1b5aa5"/>
    <path fill="#ffffff" fill-rule="evenodd" d="M526.4 36 H579.6 A44.08 44.08 0 0 1 579.6 124.16 H556.8 V188 H526.4 Z M556.8 66.4 H579.6 A13.68 13.68 0 0 1 579.6 93.76 H556.8 Z"/>
    <rect x="472" y="220" width="200" height="250" rx="7" fill="#ffffff" stroke="#8a9099" stroke-width="1"/>
    <rect x="477" y="225" width="190" height="240" rx="4" fill="#1b5aa5"/>
    <text x="572" y="262" font-family="'Arial Narrow', Arial, Helvetica, sans-serif" font-weight="700" font-size="28" letter-spacing="2" text-anchor="middle" fill="#ffffff">P–skiva</text>
    <text x="572" y="294" font-family="'Arial Narrow', Arial, Helvetica, sans-serif" font-weight="700" font-size="28" letter-spacing="2" text-anchor="middle" fill="#ffffff">2 tim</text>
    <text x="572" y="326" font-family="'Arial Narrow', Arial, Helvetica, sans-serif" font-weight="700" font-size="28" letter-spacing="2" text-anchor="middle" fill="#ffffff">08–20</text>
    <text x="572" y="362" font-family="'Arial Narrow', Arial, Helvetica, sans-serif" font-weight="700" font-size="28" letter-spacing="2" text-anchor="middle" fill="#ffffff">Övrig tid</text>
    <text x="572" y="394" font-family="'Arial Narrow', Arial, Helvetica, sans-serif" font-weight="700" font-size="28" letter-spacing="2" text-anchor="middle" fill="#ffffff">avgift</text>
    <text x="572" y="426" font-family="'Arial Narrow', Arial, Helvetica, sans-serif" font-weight="700" font-size="28" letter-spacing="2" text-anchor="middle" fill="#ffffff">Gäller</text>
    <text x="572" y="456" font-family="'Arial Narrow', Arial, Helvetica, sans-serif" font-weight="700" font-size="28" letter-spacing="2" text-anchor="middle" fill="#ffffff">alla dagar</text>
    <rect x="472" y="478" width="200" height="94" rx="7" fill="#ffffff" stroke="#8a9099" stroke-width="1"/>
    <rect x="477" y="483" width="190" height="84" rx="4" fill="#1b5aa5"/>
    <text x="572" y="522" font-family="'Arial Narrow', Arial, Helvetica, sans-serif" font-weight="700" font-size="26" letter-spacing="2" text-anchor="middle" fill="#ffffff">Aimo Park</text>
    <text x="572" y="552" font-family="'Arial Narrow', Arial, Helvetica, sans-serif" font-weight="700" font-size="20" letter-spacing="1" text-anchor="middle" fill="#ffffff">0771–96 90 00</text>
  </g>
</svg>
